<svg xmlns="http://www.w3.org/2000/svg" width="400" height="400" viewBox="0 0 400 400">
    <radialGradient id="a" cx="246.031" cy="90.139" r="90.658" gradientUnits="userSpaceOnUse">
        <stop offset="0" stop-color="#b7cc99"/>
        <stop offset=".997" stop-color="#fbb03b"/>
    </radialGradient>
    <path fill="url(#a)" stroke="#000" stroke-width="10" stroke-miterlimit="10" d="M356.653 177.394c0-85.082-68.972-155.122-154.054-155.122-85.082 0-154.054 70.573-154.054 155.654l.006 2.074h308.097l.005-2.606z"/>
    <radialGradient id="b" cx="155.107" cy="316.148" r="111.882" gradientUnits="userSpaceOnUse">
        <stop offset="0" stop-color="#b7cc99"/>
        <stop offset=".997" stop-color="#fbb03b"/>
    </radialGradient>
    <path fill="url(#b)" stroke="#000" stroke-width="10" stroke-miterlimit="10" d="M48 293c3.506 25 12.916 47.074 26.78 68h251.285c13.896-20.926 23.353-43 26.919-68H48z"/>
    <path fill="#97F218" stroke="#000" stroke-width="10" stroke-miterlimit="10" d="M372 268.006c0 10.208-9.2 18.994-19.406 18.994H41.127C30.921 287 23 278.214 23 268.006v-.705C23 257.095 30.921 249 41.127 249h311.466C362.8 249 372 257.095 372 267.301v.705z"/>
    <path fill="#FF66D2" stroke="#000" stroke-width="10" stroke-miterlimit="10" d="M372 225.52c0 9.995-8.487 18.48-18.484 18.48H48.84C38.843 244 31 235.515 31 225.52v-.389C31 215.134 38.843 207 48.84 207h304.675c9.997 0 18.484 8.134 18.484 18.131v.389z"/>
    <path fill="#FBB03B" stroke="#000" stroke-width="10" stroke-miterlimit="10" d="M128.244 181l89.463 88.826c8.119 8.117 21.28 7.8 29.401-.319l68.352-67.874c5.713-5.713 7.387-14.633 5.061-20.633H128.244z"/>
    <circle cx="203.022" cy="53.61" r="5.89"/>
    <circle cx="238.117" cy="58.353" r="5.89"/>
    <circle cx="266.572" cy="78.271" r="5.889"/>
    <circle cx="289.337" cy="109.571" r="5.889"/>
    <circle cx="254.242" cy="119.056" r="5.889"/>
    <circle cx="238.117" cy="95.344" r="5.89"/>
    <circle cx="209.662" cy="84.91" r="5.889"/>
    <circle cx="161.288" cy="58.353" r="5.89"/>
    <circle cx="176.465" cy="86.808" r="5.889"/>
    <circle cx="128.091" cy="75.426" r="5.888"/>
    <circle cx="108.173" cy="98.189" r="5.89"/>
    <path fill="#97F218" stroke="#000" stroke-width="10" stroke-miterlimit="10" d="M356.653 181H48s-39.974 7.101-26.543 30.588c0 0 10.776 17.095 75.522-8.804 0 0 22.634 25.091 69.034 7.825 0 0 13.879 19.241 34.956 17.975 21.09 1.267 34.997-18.581 34.997-18.581 46.4 17.268 69.062-8.735 69.062-8.735 60.542 22.22 75.538 10.37 75.538 10.37C407.543 200.847 356.653 181 356.653 181z"/>
    <circle cx="147.061" cy="101.036" r="5.889"/>
    <circle cx="128.091" cy="124.748" r="5.888"/>
</svg>
