<?xml version="1.0" encoding="utf-8"?>
<!-- Generator: Adobe Illustrator 16.0.0, SVG Export Plug-In . SVG Version: 6.00 Build 0)  -->
<!DOCTYPE svg PUBLIC "-//W3C//DTD SVG 1.1//EN" "http://www.w3.org/Graphics/SVG/1.1/DTD/svg11.dtd">
<svg version="1.1" id="Layer_1" xmlns="http://www.w3.org/2000/svg" xmlns:xlink="http://www.w3.org/1999/xlink" x="0px" y="0px"
	 width="64px" height="64px" viewBox="-135.5 600.5 64 64" enable-background="new -135.5 600.5 64 64" xml:space="preserve">
<g>
	<g>
		<path fill="#FBB03B" d="M-78.89,630.21c0-13.68-11.09-24.94-24.77-24.94s-24.77,11.35-24.77,25.03l0,0.33h49.54L-78.89,630.21
			L-78.89,630.21z"/>
		<path d="M-78.09,631.43h-51.14l0-1.13c0-6.85,2.66-13.31,7.49-18.21c4.85-4.91,11.27-7.62,18.09-7.62
			c14.1,0,25.57,11.55,25.57,25.75L-78.09,631.43z M-127.62,629.83h47.93c-0.2-13.13-10.88-23.75-23.96-23.75
			c-6.38,0-12.4,2.54-16.94,7.14C-125.02,617.7-127.5,623.58-127.62,629.83z"/>
	</g>
	<g>
		<path fill="#FBB03B" d="M-128.52,648.8c0.56,4.02,2.08,7.57,4.31,10.93h40.4c2.23-3.36,3.76-6.91,4.33-10.93H-128.52z"/>
		<path d="M-83.37,660.54h-41.27l-0.24-0.36c-2.43-3.67-3.88-7.36-4.43-11.27l-0.13-0.92h50.89l-0.13,0.92
			c-0.56,3.91-2.01,7.59-4.45,11.26L-83.37,660.54z M-123.77,658.93h39.53c1.98-3.06,3.23-6.12,3.82-9.33h-47.15
			C-126.99,652.8-125.75,655.87-123.77,658.93z"/>
	</g>
	<g>
		<path fill="#97F218" d="M-76.42,644.78c0,1.64-1.48,3.05-3.12,3.05h-50.08c-1.64,0-2.91-1.41-2.91-3.05v-0.11
			c0-1.64,1.27-2.94,2.91-2.94h50.08c1.64,0,3.12,1.3,3.12,2.94V644.78L-76.42,644.78z"/>
		<path d="M-79.54,648.64h-50.08c-2.05,0-3.72-1.73-3.72-3.86v-0.11c0-2.1,1.63-3.75,3.72-3.75h50.08c2.13,0,3.92,1.71,3.92,3.75
			v0.11C-75.62,646.83-77.45,648.64-79.54,648.64z M-129.62,642.53c-1.18,0-2.11,0.94-2.11,2.14v0.11c0,1.24,0.95,2.25,2.11,2.25
			h50.08c1.21,0,2.32-1.07,2.32-2.25v-0.11c0-1.16-1.06-2.14-2.32-2.14H-129.62z"/>
	</g>
	<g>
		<path fill="#FF66D2" d="M-76.42,637.95c0,1.61-1.36,2.97-2.97,2.97h-48.99c-1.61,0-2.87-1.36-2.87-2.97v-0.06
			c0-1.61,1.26-2.92,2.87-2.92h48.99c1.61,0,2.97,1.31,2.97,2.92V637.95L-76.42,637.95z"/>
		<path d="M-79.39,641.72h-48.99c-2.03,0-3.67-1.69-3.67-3.78v-0.06c0-2.05,1.65-3.72,3.67-3.72h48.99c2.08,0,3.78,1.67,3.78,3.72
			v0.06c0,0.99-0.4,1.94-1.12,2.66C-77.46,641.33-78.4,641.72-79.39,641.72z M-128.38,635.77c-1.16,0-2.06,0.93-2.06,2.11v0.06
			c0,1.19,0.93,2.17,2.06,2.17h48.99c1.16,0,2.17-1.01,2.17-2.17l0-0.06c0-1.14-0.99-2.11-2.17-2.11H-128.38z"/>
	</g>
	<g>
		<path fill="#FBB03B" d="M-115.61,630.79l14.38,14.28c1.31,1.3,3.42,1.25,4.73-0.05l10.99-10.91c0.92-0.92,1.19-2.35,0.81-3.32
			H-115.61z"/>
		<path d="M-98.92,646.83C-98.92,646.83-98.92,646.83-98.92,646.83c-1.09,0-2.11-0.42-2.88-1.19l-15.77-15.66h33.42l0.2,0.51
			c0.52,1.33,0.1,3.08-1,4.18l-10.99,10.92C-96.73,646.39-97.79,646.83-98.92,646.83z M-113.66,631.59l13,12.91
			c0.47,0.46,1.08,0.72,1.75,0.72c0.69,0,1.35-0.27,1.85-0.77l10.99-10.91c0.55-0.55,0.77-1.32,0.74-1.94H-113.66z"/>
	</g>
	<circle cx="-103.59" cy="610.31" r="0.95"/>
	<circle cx="-97.95" cy="611.07" r="0.95"/>
	<circle cx="-93.37" cy="614.27" r="0.95"/>
	<circle cx="-89.71" cy="619.3" r="0.95"/>
	<circle cx="-95.35" cy="620.83" r="0.95"/>
	<circle cx="-97.95" cy="617.02" r="0.95"/>
	<circle cx="-102.52" cy="615.34" r="0.95"/>
	<circle cx="-110.3" cy="611.07" r="0.95"/>
	<circle cx="-107.86" cy="615.64" r="0.95"/>
	<circle cx="-115.64" cy="613.81" r="0.95"/>
	<circle cx="-118.84" cy="617.47" r="0.95"/>
	<g>
		<path fill="#97F218" d="M-78.89,630.79h-49.63c0,0-6.43,1.14-4.27,4.92c0,0,1.73,2.75,12.14-1.42c0,0,3.64,4.03,11.1,1.26
			c0,0,2.23,3.09,5.62,2.89c3.39,0.2,5.63-2.99,5.63-2.99c7.46,2.78,11.1-1.4,11.1-1.4c9.73,3.57,12.15,1.67,12.15,1.67
			C-70.71,633.98-78.89,630.79-78.89,630.79z"/>
		<path d="M-104.24,639.25c-2.77,0-4.76-1.86-5.56-2.76c-1.64,0.55-3.22,0.83-4.72,0.83c-3.37,0-5.46-1.4-6.29-2.1
			c-3.7,1.44-6.73,2.18-9.01,2.18c-2.71,0-3.51-1.05-3.64-1.27l-0.02-0.03c-0.78-1.37-0.58-2.44-0.27-3.1
			c1.04-2.23,4.69-2.93,5.1-3.01l0.07-0.01h49.85l0.14,0.05c0.05,0.02,1.34,0.53,2.65,1.25c2.02,1.13,2.97,2.13,2.97,3.18
			c0,0.83-0.57,1.49-1.69,1.96c-0.32,0.19-1.18,0.6-2.98,0.6l0,0c-2.4,0-5.54-0.69-9.35-2.05c-0.84,0.74-2.97,2.23-6.43,2.23
			c-1.46,0-3.01-0.27-4.6-0.81c-0.8,0.93-2.8,2.85-5.59,2.85c-0.1,0-0.21,0-0.31-0.01C-104.03,639.25-104.13,639.25-104.24,639.25z
			 M-109.25,634.58l0.36,0.5c0.02,0.02,1.9,2.57,4.65,2.57c0.09,0,0.18,0,0.27-0.01l0.05,0l0.05,0c2.92,0.18,4.9-2.62,4.92-2.65
			l0.36-0.51l0.58,0.22c1.61,0.6,3.15,0.9,4.59,0.9c3.73,0,5.56-2,5.63-2.08l0.36-0.41l0.52,0.19c4.79,1.76,7.68,2.12,9.27,2.12
			c1.42,0,2.01-0.29,2.12-0.35l0.1-0.09l0.09-0.01c0.62-0.25,0.76-0.46,0.76-0.49c0-0.16-0.39-0.8-2.15-1.78
			c-0.98-0.54-1.97-0.96-2.32-1.11h-49.4c-0.89,0.17-3.29,0.88-3.86,2.09c-0.21,0.45-0.15,0.96,0.18,1.56
			c0.1,0.09,0.66,0.54,2.3,0.54c2.17,0,5.15-0.76,8.88-2.25l0.52-0.21l0.38,0.42c0.07,0.08,1.86,1.97,5.52,1.97
			c1.47,0,3.05-0.31,4.7-0.92L-109.25,634.58z"/>
	</g>
	<circle cx="-112.59" cy="617.93" r="0.95"/>
	<circle cx="-115.64" cy="621.74" r="0.95"/>
</g>
</svg>
